<?xml version="1.0" standalone="no"?>
<!DOCTYPE svg PUBLIC "-//W3C//DTD SVG 20010904//EN"
 "http://www.w3.org/TR/2001/REC-SVG-20010904/DTD/svg10.dtd">
<svg version="1.0" xmlns="http://www.w3.org/2000/svg"
 width="500.000000pt" height="500.000000pt" viewBox="0 0 500.000000 500.000000"
 preserveAspectRatio="xMidYMid meet">

<g transform="translate(0.000000,500.000000) scale(0.100000,-0.100000)"
fill="#000000" stroke="none">
<path d="M2355 4003 c-70 -7 -317 -64 -390 -90 -223 -80 -440 -231 -597 -415
-99 -116 -214 -304 -265 -432 -59 -151 -105 -431 -96 -586 3 -47 14 -128 25
-180 11 -52 24 -120 28 -150 18 -113 138 -364 239 -500 126 -169 344 -357 516
-447 68 -35 161 -70 302 -114 17 -5 56 -14 85 -19 29 -4 61 -11 71 -15 22 -9
23 17 2 35 -8 7 -15 18 -15 26 0 20 -143 69 -235 81 -22 3 -47 11 -55 18 -8 7
-61 36 -117 64 -56 28 -103 55 -105 59 -2 4 -39 34 -83 67 -157 117 -227 190
-332 347 -99 150 -157 290 -213 512 -17 68 -22 121 -23 230 -3 192 22 334 91
531 40 117 59 156 118 248 24 37 44 70 44 72 0 6 7 14 108 127 135 151 352
291 564 364 172 59 229 68 473 68 224 1 221 1 404 -44 57 -14 192 -70 267
-111 196 -105 404 -305 522 -501 50 -84 132 -264 132 -292 0 -8 9 -39 19 -68
71 -191 67 -535 -8 -749 -10 -31 -24 -82 -31 -112 -6 -33 -23 -71 -41 -93 -16
-20 -29 -42 -29 -48 0 -20 -120 -198 -189 -280 -85 -101 -254 -239 -378 -310
-90 -51 -157 -77 -350 -136 -79 -25 -88 -31 -95 -72 -5 -27 -4 -28 38 -28 24
0 61 6 81 14 21 8 83 28 138 46 209 66 385 177 579 364 53 51 156 180 156 196
0 4 14 25 31 46 27 34 133 242 167 329 15 38 57 244 72 353 14 100 -1 312 -29
423 -10 41 -21 91 -25 112 -20 109 -173 412 -254 503 -122 137 -214 221 -326
295 -246 165 -352 202 -726 249 -151 19 -181 21 -265 13z"/>
<path d="M1686 3409 c-42 -36 -43 -41 -14 -79 20 -28 21 -35 13 -167 -9 -161
-11 -194 -20 -288 l-7 -70 59 107 c62 116 131 196 197 231 37 20 56 22 211 22
l170 0 20 -40 c19 -38 20 -60 20 -450 -1 -514 -8 -766 -25 -830 -18 -67 -40
-97 -95 -125 -43 -22 -45 -25 -28 -37 122 -87 275 -362 300 -538 6 -48 23 -62
23 -19 0 29 83 280 109 331 27 52 123 162 174 200 l49 36 -35 12 c-49 17 -95
52 -112 85 -29 57 -50 455 -49 935 0 296 1 313 22 367 13 31 30 62 39 70 12
10 50 12 152 10 199 -4 214 -8 304 -94 54 -52 70 -75 130 -188 16 -30 31 -57
34 -60 5 -6 -5 149 -11 159 -6 10 -18 220 -17 286 1 36 7 56 24 73 l22 24 -40
34 -40 34 -90 -7 c-128 -9 -1197 -10 -1337 0 l-116 8 -36 -32z"/>
</g>
</svg>
